<svg xmlns="http://www.w3.org/2000/svg" width="330.88" height="41.46" viewBox="0 0 330.88 41.46"><defs><style>.cls-1{fill:#fff;}</style></defs><title>simpelhvidsikkertrafik</title><g id="Layer_2" data-name="Layer 2"><g id="Lag_1" data-name="Lag 1"><path class="cls-1" d="M16.31,34.9c1.85,0,3.27-1.1,3.27-2.83V30c0-1.73-.93-2.54-3.46-3.69L8.46,22.79C3.52,20.54.62,19.21.62,14.54V10A7.58,7.58,0,0,1,8.46,2.6H24a1,1,0,0,1,1,.93V8a1,1,0,0,1-1,.92H11.72c-1.85,0-3.27,1.1-3.27,2.83v1.74c0,1.84,1.45,2.3,3.61,3.28l7.11,3.52c5.56,2.54,8.21,4.27,8.21,9V34c0,4.09-3.91,7.38-8.29,7.38H1a.94.94,0,0,1-1-.92V35.82a.94.94,0,0,1,1-.92Z"/><path class="cls-1" d="M43.72,34.77a.92.92,0,0,0,.91,1h3.64a1,1,0,0,1,1,1v3.7a1,1,0,0,1-1,1H32.74a1,1,0,0,1-1-1v-3.7a1,1,0,0,1,1-1h2.91a.91.91,0,0,0,.91-1V18.45a.9.9,0,0,0-.91-1H33.71a1,1,0,0,1-1-1v-3.7a1,1,0,0,1,1-1h9a1,1,0,0,1,1,1ZM39.72,0a4.47,4.47,0,0,1,4.37,4.37,4.34,4.34,0,1,1-8.68,0A4.46,4.46,0,0,1,39.72,0Z"/><path class="cls-1" d="M137.41,27.93a.91.91,0,0,1-.91,1H120.36v.91c0,3.64,3.09,5.89,7.46,5.89h7.52a1,1,0,0,1,1,1v3.76a1,1,0,0,1-1,1h-8.8c-7.64,0-13.35-4-13.35-11.89V21.92c0-6,2.8-10.68,12.51-10.68,8.31,0,11.71,4.19,11.71,9.29Zm-17-5c0,.55.18.85.79.85h8.37a.9.9,0,0,0,.91-1V21.5c0-2.73-1.15-4.62-5-4.62-4.25,0-5.1,2.07-5.1,4.74Z"/><path class="cls-1" d="M146.71,18.47a.91.91,0,0,0-.91-1h-1.94a1,1,0,0,1-1-1v-3.7a1,1,0,0,1,1-1h14.81a7.53,7.53,0,0,1,7.7,7.59v2.3a1,1,0,0,1-1,1h-4.68a.91.91,0,0,1-.91-1V20.29c0-1.82-1.39-2.8-3.21-2.8h-1.82a.91.91,0,0,0-.91,1V34.79a.9.9,0,0,0,.9,1h5.59a1,1,0,0,1,1,1v3.7a1,1,0,0,1-1,1H143.86a1,1,0,0,1-1-1v-3.7a1,1,0,0,1,1-1h1.94a.9.9,0,0,0,.91-1Z"/><path class="cls-1" d="M207.89,18.47a.91.91,0,0,0-.91-1H205a1,1,0,0,1-1-1v-3.7a1,1,0,0,1,1-1h14.81a7.53,7.53,0,0,1,7.7,7.58v2.31a1,1,0,0,1-1,1h-4.67a.9.9,0,0,1-.91-1V20.29c0-1.81-1.39-2.79-3.22-2.79H216a.92.92,0,0,0-.91,1V34.8a.9.9,0,0,0,.91,1h5.59a1,1,0,0,1,1,1v3.7a1,1,0,0,1-1,1H205a1,1,0,0,1-1-1v-3.7a1,1,0,0,1,1-1H207a.91.91,0,0,0,.91-1Z"/><path class="cls-1" d="M246.57,20.54c0-2.24-2.37-3.64-5.47-3.64s-8.37.79-8.8.79-.6-.19-.6-.67V13c0-.36,0-.85.67-1a74.79,74.79,0,0,1,8.55-.73c7.17,0,12.81,2.13,12.81,9.35V34.2a1.39,1.39,0,0,0,1.39,1.58h.24a1,1,0,0,1,1,1v3.71a1,1,0,0,1-1,1h-2.18c-3.22,0-4.74-1-5.4-3.28-.12-.36-.31-.48-.49-.48a.58.58,0,0,0-.55.42c-.91,2.31-2.42,3.34-6.25,3.34H238a7.66,7.66,0,0,1-8-7.65V32.5c0-4.5,3.33-7,7.7-7.95l8.87-1.89ZM242,35.77c4.13,0,4.62-2.3,4.62-6.13v-2l-6.8,1.7a3.28,3.28,0,0,0-2.61,3.22v.6c0,1.64,1.39,2.61,3.21,2.61Z"/><path class="cls-1" d="M289.85,8.77a4.47,4.47,0,0,0,4.37-4.37,4.34,4.34,0,1,0-8.68,0A4.46,4.46,0,0,0,289.85,8.77Z"/><path class="cls-1" d="M298.4,35.78h-3.64a.9.9,0,0,1-.91-1v-22a1,1,0,0,0-1-1H272a1,1,0,0,1-1-1v-.55a4.07,4.07,0,0,1,4.07-4.07h2a1,1,0,0,0,1-1V1.55a.91.91,0,0,0-.91-.91h-3.52c-6,0-9.77,2.36-9.77,8.19V11a.91.91,0,0,1-.91.91h-3a1,1,0,0,0-1,1v3.7a1,1,0,0,0,1,1h3a1,1,0,0,1,1,1v22a1,1,0,0,0,1,1h5.21a1,1,0,0,0,1-1v-22a.91.91,0,0,1,.91-.91h13.83a.92.92,0,0,1,.91,1V34.81a.92.92,0,0,1-.91,1h-2.92a1,1,0,0,0-1,1v3.7a1,1,0,0,0,1,1H298.4a1,1,0,0,0,1-1v-3.7A1,1,0,0,0,298.4,35.78Z"/><path class="cls-1" d="M69.83,26.47a1.6,1.6,0,0,1-.42-.91,1.59,1.59,0,0,1,.42-.92l8.8-11a1.74,1.74,0,0,0,.43-1c0-.49-.43-.79-1.1-.79H73.6c-1.46,0-1.89.37-2.92,1.7l-6.62,8.37c-.12.16-.24.32-.34.48H61.21V6.64a1,1,0,0,0-1-1H55a.91.91,0,0,0-.91,1V40.42a.9.9,0,0,0,.91,1h5.28a1,1,0,0,0,1-1V28.7h2.2a11,11,0,0,0,1.32,1.89l7.71,9.83a2.24,2.24,0,0,0,2.18,1h5c.67,0,1.09-.3,1.09-.79a1.76,1.76,0,0,0-.42-1Z"/><path class="cls-1" d="M100.19,26.47a1.6,1.6,0,0,1-.42-.91,1.54,1.54,0,0,1,.42-.91l8.8-11a1.71,1.71,0,0,0,.43-1c0-.48-.43-.79-1.09-.79H104c-1.46,0-1.89.37-2.92,1.7l-6.61,8.38a3.27,3.27,0,0,0-.35.48H91.57V6.64a1,1,0,0,0-1-1H85.33a.92.92,0,0,0-.92,1V40.42a.91.91,0,0,0,.91,1H90.6a1,1,0,0,0,1-1V28.7h2.2a11.49,11.49,0,0,0,1.32,1.9l7.71,9.83a2.24,2.24,0,0,0,2.18,1h5c.67,0,1.09-.3,1.09-.79a1.8,1.8,0,0,0-.42-1Z"/><path class="cls-1" d="M330.45,39.61,320,26.5a1.55,1.55,0,0,1-.43-.91,1.5,1.5,0,0,1,.43-.91l8.8-11a1.76,1.76,0,0,0,.42-1c0-.49-.42-.79-1.09-.79h-4.37c-1.46,0-1.88.37-2.91,1.7L314.19,22a5.2,5.2,0,0,0-.35.47h-2.5V6.36a1,1,0,0,0-1-1h-5.28a.9.9,0,0,0-.91,1v34.1a.92.92,0,0,0,.91,1h5.28a1,1,0,0,0,1-1V28.73h2.2a10.41,10.41,0,0,0,1.31,1.89l7.71,9.83a2.23,2.23,0,0,0,2.19,1h5c.67,0,1.1-.3,1.1-.79A1.76,1.76,0,0,0,330.45,39.61Z"/><path class="cls-1" d="M184.85,9.61a.92.92,0,0,0-.92-1h-9.34a1,1,0,0,1-1-1V3.42a1,1,0,0,1,1-1h28a1,1,0,0,1,1,1V7.64a1,1,0,0,1-1,1h-9.34a.92.92,0,0,0-.92,1V40.48a1,1,0,0,1-1,1h-5.6a.92.92,0,0,1-.92-1Z"/></g></g></svg>
